<?xml version="1.0" encoding="UTF-8" standalone="no"?>
<!-- Created with Inkscape (http://www.inkscape.org/) -->

<svg
   width="512"
   height="512"
   viewBox="0 0 512 512"
   version="1.1"
   id="svg1"
   xmlns="http://www.w3.org/2000/svg"
   xmlns:svg="http://www.w3.org/2000/svg">
  <defs
     id="defs1" />
  <g
     id="layer1">
    <circle
       style="opacity:1;fill:#00479d;fill-opacity:1;stroke-width:3.77953;stroke-dasharray:7.55906, 3.77953"
       id="path1"
       cx="256"
       cy="256"
       r="256" />
  </g>
  <g
     id="layer2">
    <path
       style="font-size:450.704px;font-family:'Lavishly Yours';-inkscape-font-specification:'Lavishly Yours';fill:#ffffff;stroke-width:17.7443;stroke-dasharray:35.4886, 17.7443"
       d="m 172.61967,434.40828 q -31.09858,0 -58.59153,-15.77464 -29.746461,-18.47887 -39.661949,-45.97181 -3.605632,-9.91549 -5.408448,-18.02816 -1.802816,-8.56338 -1.802816,-14.42253 0,-14.42253 10.366192,-14.42253 3.154928,0 3.605632,3.15493 2.25352,8.56338 4.056336,14.42253 1.802816,5.85915 3.154928,9.46478 2.25352,6.30986 5.859152,11.71831 3.605633,5.40844 7.661973,10.36619 21.18308,23.88731 56.7887,23.88731 6.30986,0 14.87323,-2.70422 9.46479,-2.70423 10.8169,-2.70423 1.35211,0.45071 1.35211,1.35212 0,8.11267 -34.2535,8.11267 -48.67604,0 -63.999973,-33.3521 27.042243,60.39434 84.732353,60.39434 1.35211,0 3.15493,0 1.80282,0 3.60563,-0.45071 0.90141,-0.4507 3.15493,-1.35211 2.70422,-0.90141 6.30986,-1.80281 20.73238,-6.30986 49.12673,-50.02815 10.36619,-15.77464 18.92957,-31.99998 9.01408,-16.22535 15.77464,-32.9014 11.2676,-25.23942 17.57746,-49.57744 -4.50704,-20.28168 -22.5352,-20.28168 -3.15493,0 -4.05634,0.45071 0,-6.76056 5.40845,-12.61972 5.40845,-6.30985 12.61971,-6.30985 12.16901,0 13.07042,18.02816 4.05633,-18.47887 5.85915,-36.50703 1.80282,-18.02816 1.80282,-34.70421 0,-3.60563 0,-7.66196 0,-4.05634 -0.45071,-7.66197 -15.77464,-3.60563 -40.56336,-9.01408 -24.78872,-5.40845 -57.23941,-12.61971 -21.18309,-4.05634 -38.76054,-6.30986 -17.12676,-2.25352 -31.09858,-2.25352 -34.704208,0 -52.281665,13.97182 -13.971824,11.2676 -13.971824,25.23943 0,24.33801 34.253509,24.33801 1.35211,0 1.35211,0.45071 0,1.80281 -11.267603,2.25352 -0.901408,0 -1.802816,0.90141 -0.901408,0.4507 -2.25352,0.4507 -3.154928,0 -6.76056,-1.80282 -17.126752,-5.85915 -17.126752,-23.88731 0,-4.95774 1.352112,-10.36619 1.802816,-5.40845 5.408448,-10.36619 25.690129,-38.30984 81.577421,-38.30984 11.26761,0 23.88732,1.35211 13.07041,0.90141 27.94365,4.50704 l 95.54925,22.5352 q -4.05634,-29.29576 -20.28168,-49.126738 -3.15493,-3.154928 -3.15493,-5.859152 0,-3.605632 4.05633,-3.605632 2.25352,0 6.76056,3.605632 17.12676,17.577457 22.5352,57.23941 24.78872,5.40845 43.71829,8.11267 l 5.85916,-9.91549 q 3.60563,-5.85915 9.01408,-10.36619 5.40844,-4.95774 12.169,-9.46478 14.87324,-8.56338 27.04224,-8.56338 6.30986,0 14.42253,4.05634 8.56338,4.05633 8.56338,10.36619 0,4.95774 -4.05634,4.95774 -0.90141,0 -7.66197,-6.76056 -5.85915,-7.21126 -13.52112,-7.21126 -15.77464,0 -27.94364,26.14083 l -4.05634,8.56338 q 5.85915,0.4507 11.2676,0.4507 5.85915,0 10.36619,0 31.54928,0 41.46477,-10.36619 8.11267,-9.46478 8.11267,-21.18309 0,-6.30986 -3.60563,-11.2676 -3.60563,-5.408447 -3.60563,-5.408447 0,-2.25352 2.70422,-2.25352 8.11268,0 8.11268,18.929567 0,45.52111 -76.16898,45.52111 h -3.60563 l -37.40844,116.73233 q -24.33801,72.11265 -55.43659,108.16897 -41.01407,47.32392 -102.76051,47.32392 z m 18.47886,-5.85915 q 49.57744,-7.21127 81.12672,-56.33801 10.36619,-16.67604 20.28168,-42.81688 10.36619,-26.59153 20.28168,-62.19715 11.2676,-41.46477 19.38027,-68.05631 8.11268,-27.04224 13.52113,-38.30984 -8.11268,-0.9014 -16.67605,-1.80281 -8.56338,-0.90141 -17.57746,-2.70423 v 9.46479 q 0,33.8028 -8.11267,70.30982 -7.66197,36.05632 -22.98591,74.81687 -36.50702,89.6901 -89.23939,117.63375 z"
       id="text1"
       aria-label="T" />
  </g>
</svg>
